<?xml version="1.0" encoding="utf-8"?>
<!-- Generator: Adobe Illustrator 28.0.0, SVG Export Plug-In . SVG Version: 6.00 Build 0)  -->
<svg version="1.1" xmlns="http://www.w3.org/2000/svg" xmlns:xlink="http://www.w3.org/1999/xlink" x="0px" y="0px"
	 viewBox="0 0 600 600" style="enable-background:new 0 0 600 600;" xml:space="preserve">
<style type="text/css">
	.st0{fill:#FFFFFF;}
</style>
<g id="Layer_2">
</g>
<g id="Layer_1">
	<g>
		<rect x="563.2" y="312.3" class="st0" width="36.8" height="150"/>
		<polygon class="st0" points="0,462.4 38.1,462.4 38.1,443.6 74.6,443.6 74.6,419.4 269.9,312.3 0,312.3 		"/>
		<polygon class="st0" points="524,173.1 563.2,173.1 563.2,274.9 600,274.9 600,124.9 0,124.9 0,274.9 338.2,274.9 		"/>
		<g>
			<polygon class="st0" points="388.5,343.5 360,343.5 360,357.7 388.5,357.7 388.5,386.1 402.7,386.1 402.7,343.4 388.5,343.4 			
				"/>
			<polygon class="st0" points="374.2,315 360,315 360,300.7 374.2,300.7 374.2,286.5 360,286.5 360,286.5 345.8,286.5 345.8,286.5 
				345.8,286.5 345.8,300.7 345.8,300.7 345.8,315 345.8,315 345.8,329.2 374.2,329.2 			"/>
			<polygon class="st0" points="331.5,343.4 345.8,343.4 345.8,329.2 317.3,329.2 317.3,315 331.5,315 331.5,300.8 317.3,300.8 
				317.3,300.7 303.1,300.7 303.1,300.8 303.1,300.8 303.1,315 303.1,315 303.1,329.2 288.9,329.2 288.9,343.4 303.1,343.4 
				303.1,343.4 317.3,343.4 317.3,371.9 331.5,371.9 331.5,371.9 360,371.9 360,357.7 331.5,357.7 			"/>
			<polygon class="st0" points="530.7,272.3 530.7,357.7 502.2,357.7 502.2,343.4 502.2,343.4 502.2,343.4 516.4,343.4 516.4,300.7 
				502.2,300.7 502.2,300.8 488,300.8 488,315 502.2,315 502.2,329.2 488,329.2 488,329.2 488,329.2 488,367.6 488,367.6 488,371.9 
				530.7,371.9 530.7,386.1 544.9,386.1 544.9,272.3 			"/>
			<polygon class="st0" points="402.7,272.3 388.5,272.3 388.5,300.8 388.4,300.8 388.4,315 388.5,315 388.5,329.2 402.7,329.2 
				402.7,315 416.8,315 416.8,300.8 402.7,300.8 			"/>
			<polygon class="st0" points="473.7,315 473.7,300.8 459.5,300.8 459.5,343.4 431.1,343.4 431.1,329.2 445.3,329.2 445.3,315 
				431.1,315 431.1,314.9 416.9,314.9 416.9,357.6 431.1,357.6 431.1,357.6 459.5,357.6 459.5,386.1 473.7,386.1 473.7,329.2 
				488,329.2 488,315 			"/>
		</g>
	</g>
</g>
</svg>
